PathFileType	4	(X/Y/Z)	C:\Users\Basilio\Documents\Thesis Gigler\squatting_fais\c3dfiles\054\SLS_back_pre5\markers_experimental.trc
DataRate	CameraRate	NumFrames	NumMarkers	Units	OrigDataRate	OrigDataStartFrame	OrigNumFrames
200.000000	200.000000	4	61	mm	200.000000	1110	1480
Frame#	Time	FHD			LBHD			RBHD			C7			T10			CLAV			LSHO			LUUPA			LMUPA			LDUPA			LLEP			LMEP			LRAD			LUL			LRFIN			RSHO			RUPA1			RMUPA			RDUPA			RLEP			RMEP			RRAD			RUL			RUFIN			LASI			RASI			USACR			LSACR			RSACR			LTHI1			LTHI2			LTHI3			LTHI4			LLFC			LMFC			LTIB1			LTIB2			LTIB3			LTIB4			LLMAL			LMMAL			LHEE			LMT1			LMT2			LMT5			RTHI			RTHI2			RTHI3			RTHI4			RLFC			RMFC			RTIB1			RTIB2			RTIB3			RTIB4			RLMAL			RMMAL			RHEE			RMT1			RMT2			RMT5			
		X1	Y1	Z1	X2	Y2	Z2	X3	Y3	Z3	X4	Y4	Z4	X5	Y5	Z5	X6	Y6	Z6	X7	Y7	Z7	X8	Y8	Z8	X9	Y9	Z9	X10	Y10	Z10	X11	Y11	Z11	X12	Y12	Z12	X13	Y13	Z13	X14	Y14	Z14	X15	Y15	Z15	X16	Y16	Z16	X17	Y17	Z17	X18	Y18	Z18	X19	Y19	Z19	X20	Y20	Z20	X21	Y21	Z21	X22	Y22	Z22	X23	Y23	Z23	X24	Y24	Z24	X25	Y25	Z25	X26	Y26	Z26	X27	Y27	Z27	X28	Y28	Z28	X29	Y29	Z29	X30	Y30	Z30	X31	Y31	Z31	X32	Y32	Z32	X33	Y33	Z33	X34	Y34	Z34	X35	Y35	Z35	X36	Y36	Z36	X37	Y37	Z37	X38	Y38	Z38	X39	Y39	Z39	X40	Y40	Z40	X41	Y41	Z41	X42	Y42	Z42	X43	Y43	Z43	X44	Y44	Z44	X45	Y45	Z45	X46	Y46	Z46	X47	Y47	Z47	X48	Y48	Z48	X49	Y49	Z49	X50	Y50	Z50	X51	Y51	Z51	X52	Y52	Z52	X53	Y53	Z53	X54	Y54	Z54	X55	Y55	Z55	X56	Y56	Z56	X57	Y57	Z57	X58	Y58	Z58	X59	Y59	Z59	X60	Y60	Z60	X61	Y61	Z61	

1111	5.55	-130.1226348876953	1800.597412109375	-1022.692749023438	-290.0148925781251	1752.1484375	-1099.83984375	-313.5602111816407	1754.501953125	-961.369079589844	-344.1042175292969	1580.6123046875	-1019.9560546875	-391.0239257812501	1257.01416015625	-1014.358642578125	-197.8650207519532	1523.586303710938	-1022.119567871094	-266.0337219238282	1579.709716796875	-1173.51171875	-120.9712677001953	1445.687255859375	-1294.1875	-85.00216674804689	1476.226684570313	-1279.57763671875	-52.5819435119629	1430.826782226563	-1302.003540039063	6.220527648925783	1428.56982421875	-1297.185668945313	-0.4963960051536561	1364.200561523438	-1249.909912109375	242.9767608642579	1455.180541992188	-1171.692993164063	272.7598876953126	1416.517456054688	-1232.409790039063	335.9262695312501	1478.034057617188	-1175.799560546875	-273.7347106933594	1580.121459960938	-877.421569824219	-143.7420501708985	1444.229614257813	-736.1137084960939	-104.4211578369141	1470.907592773438	-743.9801635742189	-79.50066375732423	1420.436767578125	-719.6494750976564	-33.95275878906251	1409.187744140625	-717.2377929687501	-37.87229156494141	1354.73486328125	-774.0427856445315	216.7696685791016	1482.646240234375	-845.6909790039065	227.5788116455079	1449.9033203125	-773.5325317382815	287.9548645019532	1521.15283203125	-835.684020996094	-223.1397857666016	1056.187744140625	-1120.259765625	-215.1470794677735	1096.417846679688	-872.1134033203127	-399.3013916015626	1171.13037109375	-1002.838439941406	-407.8503723144532	1136.549926757813	-1026.158447265625	-407.6943969726564	1142.973388671875	-969.3262329101565	-330.2023925781251	819.8674926757815	-1180.131103515625	-301.7590942382813	739.4006958007814	-1177.293579101563	-253.4653320312501	741.1947021484376	-1172.7509765625	-330.9009094238282	688.9770507812501	-1155.322265625	-330.7048339843751	537.0296020507814	-1129.59130859375	-302.3038330078126	537.1740722656251	-991.5135498046877	-285.1965026855469	375.9963989257813	-1069.68896484375	-331.3593750000001	326.5658569335938	-1125.160278320313	-292.9392089843751	325.6360473632813	-1100.4248046875	-299.5833435058594	250.0183715820313	-1062.762329101563	-358.4472351074219	113.5303115844727	-1097.277587890625	-329.1656188964844	132.3243560791016	-1007.053771972656	-428.0887145996095	102.9867782592774	-1040.555297851563	-215.7738647460938	54.36968994140626	-1019.62548828125	-208.1278228759766	54.00661087036134	-1068.843994140625	-260.9731750488282	39.6532211303711	-1120.250854492188	-215.2731628417969	817.487243652344	-739.1246337890626	-159.7029724121094	780.8372192382815	-729.5258789062501	-127.9235076904297	791.020935058594	-735.6547241210939	-158.5020141601563	697.3375244140626	-733.3027954101564	-155.1632385253907	623.2471313476564	-727.7749023437501	-98.75458526611331	612.4044799804689	-854.435974121094	-146.783187866211	505.8236083984376	-731.3823242187501	-247.6847381591797	477.8236083984376	-705.0880737304689	-211.5248413085938	449.7954406738282	-714.0526733398439	-223.3585815429688	399.6040344238282	-740.9215698242189	-365.5024719238282	276.9227905273438	-727.8082275390626	-317.3110656738282	275.2794494628907	-811.7006835937502	-432.8471984863282	272.0603637695313	-789.955993652344	-239.368637084961	157.478500366211	-789.8233032226565	-237.4914093017579	162.669677734375	-742.7180786132814	-292.7148742675782	165.7478332519532	-697.9802856445314	
1112	5.555	-130.5245971679688	1800.67626953125	-1021.65966796875	-290.3929138183594	1752.132446289063	-1098.999633789063	-313.8077392578126	1754.453979492188	-960.5482177734377	-344.2702331542969	1580.509887695313	-1018.847717285156	-390.8912658691407	1256.839233398438	-1013.522705078125	-198.2700653076172	1523.574584960938	-1021.062866210938	-266.2372436523438	1579.644287109375	-1172.332885742188	-121.1576385498047	1445.735229492188	-1293.303344726563	-85.28154754638673	1476.279541015625	-1278.683349609375	-52.96567916870119	1430.74560546875	-1301.044189453125	5.933377265930177	1428.502563476563	-1296.350219726563	-0.8321694135665896	1363.992309570313	-1248.797973632813	242.8603210449219	1455.1044921875	-1170.944580078125	272.6985168457032	1416.55126953125	-1231.649658203125	335.7004089355469	1477.938720703125	-1174.8828125	-273.8968811035157	1580.079223632813	-876.2732543945315	-143.9081115722657	1444.253051757813	-735.0832519531251	-104.7591934204102	1470.9169921875	-742.8485107421876	-79.44930267333986	1420.50732421875	-718.7426147460939	-34.19105529785157	1409.26806640625	-716.2869873046876	-37.82152175903321	1354.905395507813	-773.1309814453127	216.4756927490235	1483.03759765625	-844.6137695312502	227.3874664306641	1450.265258789063	-772.6264648437502	287.8508911132813	1521.4228515625	-834.8229980468752	-222.7619934082032	1056.26171875	-1119.654296875	-214.9842987060547	1096.320190429688	-871.1914062500002	-399.1345520019532	1171.021606445313	-1002.223876953125	-407.8708496093751	1136.508056640625	-1025.1162109375	-407.477264404297	1142.739379882813	-968.221618652344	-329.9131774902344	819.8579101562502	-1179.49755859375	-301.5496826171876	739.4423217773439	-1176.636352539063	-253.241439819336	741.3368530273439	-1172.0869140625	-330.5413208007813	689.1153564453126	-1154.7001953125	-330.3510437011719	537.0191650390626	-1129.074584960938	-302.0629272460938	537.0377807617189	-991.2002563476565	-285.1282348632813	375.9161682128907	-1069.33935546875	-331.2003784179688	326.6766357421876	-1124.940551757813	-292.8316040039063	325.6401672363282	-1100.180786132813	-299.4884948730469	250.0191497802735	-1062.55810546875	-358.3628845214844	113.51904296875	-1097.268310546875	-328.6271667480469	132.4994659423828	-1007.005981445313	-428.0941162109376	103.0119400024414	-1040.560913085938	-215.7727050781251	54.36929321289064	-1019.6083984375	-208.4844360351563	54.01234817504884	-1069.046875	-260.9788818359376	39.6669044494629	-1120.227172851563	-216.5662994384766	816.772644042969	-738.5833740234376	-160.7937316894532	779.706481933594	-729.2617187500001	-129.3357543945313	789.5545654296877	-734.9730224609376	-160.1817932128907	695.9553833007814	-733.1030883789064	-157.2287750244141	621.4000244140626	-727.2995605468751	-100.8073043823242	610.7260742187501	-854.0595703125002	-147.6053771972657	503.7539367675782	-730.6234130859376	-247.5528106689454	474.5417480468751	-703.8063354492189	-211.1772918701172	446.9177856445314	-713.0023193359376	-222.1924896240235	396.4405212402345	-739.6338500976564	-362.4703674316407	271.5125732421876	-725.7969970703126	-314.4757080078126	270.5230712890626	-809.748229980469	-429.9980468750001	265.4551391601563	-787.6453247070315	-234.9468994140626	154.0301971435547	-787.7590332031252	-232.8398132324219	159.22705078125	-740.6555786132814	-287.8488464355469	161.5196075439453	-695.8255615234376	
1113	5.56	-130.7616882324219	1800.7451171875	-1020.563232421875	-290.3546752929688	1751.946411132813	-1098.008911132813	-314.4929199218751	1754.595825195313	-959.6058349609377	-344.4592285156251	1580.43408203125	-1017.968994140625	-390.7400512695314	1256.604125976563	-1012.631042480469	-198.4792785644532	1523.6220703125	-1020.145874023438	-266.4850158691407	1579.759887695313	-1171.421875	-121.0623550415039	1445.497924804688	-1292.458129882813	-85.46617889404298	1476.226806640625	-1277.704223632813	-53.2582130432129	1430.688110351563	-1300.0263671875	5.611819744110108	1428.301391601563	-1295.341064453125	-1.116553664207459	1363.935791015625	-1247.906860351563	242.4432525634766	1455.071166992188	-1170.096557617188	272.6209106445313	1416.44921875	-1230.9521484375	335.1958618164063	1477.847290039063	-1174.0498046875	-274.1015625000001	1579.998291015625	-875.3137817382815	-144.2453918457032	1444.273193359375	-733.9028320312501	-104.7757034301758	1471.062744140625	-741.9038085937501	-79.39531707763673	1420.596557617188	-717.9448242187501	-34.21876907348634	1409.336181640625	-715.4010009765626	-37.70103073120118	1355.105346679688	-772.1201782226565	213.5114898681641	1483.557495117188	-841.3222656250002	227.3401489257813	1450.721801757813	-771.6712036132815	287.5665893554688	1521.954467773438	-833.8697509765627	-222.4657897949219	1056.30615234375	-1118.806518554688	-214.9485168457032	1096.208374023438	-870.2843017578127	-398.9925842285157	1170.880615234375	-1001.174499511719	-407.598114013672	1136.43115234375	-1024.441772460938	-407.3346252441407	1142.620483398438	-967.5537719726565	-329.7005310058594	820.007995605469	-1179.135864257813	-300.1156005859376	739.0692138671876	-1176.242065429688	-253.0926055908204	741.5206298828126	-1171.52099609375	-330.0924377441407	689.0821533203126	-1154.122192382813	-330.1386108398438	537.0335083007814	-1128.797607421875	-301.8345336914063	536.8994140625001	-990.773132324219	-284.9557189941407	375.8835144042969	-1069.003540039063	-331.1493835449219	326.7555236816407	-1124.654663085938	-292.6758117675782	325.6560058593751	-1099.971923828125	-299.3925170898438	250.0246887207032	-1062.328369140625	-358.1736450195313	113.4760360717774	-1097.28662109375	-328.5897521972657	132.4332122802735	-1006.93505859375	-428.1113281250001	102.9961471557617	-1040.533813476563	-215.7859191894532	54.33644104003908	-1019.580810546875	-208.1349639892579	53.99588012695314	-1068.850341796875	-261.0053710937501	39.70810699462891	-1120.228881835938	-217.2501678466797	816.006774902344	-738.0521240234376	-162.1245574951172	778.4019775390627	-728.7418212890626	-130.4734497070313	788.1347656250002	-734.6774902343751	-162.1944732666016	694.8237304687501	-732.6744995117189	-159.2700958251953	619.5717773437501	-726.7575683593751	-103.2379302978516	608.9381713867189	-853.761169433594	-148.1909637451172	501.8007202148439	-730.0111083984376	-247.5944366455079	470.9781799316407	-702.6966552734376	-210.7686920166016	444.005096435547	-711.8505249023439	-221.2279205322266	393.2398376464845	-738.3543701171876	-359.6147460937501	266.1069335937501	-723.6436767578126	-311.6735534667969	265.5820312500001	-807.8220825195315	-427.0110778808595	258.9487915039063	-785.4380493164065	-230.4188537597657	150.3751983642578	-785.7744750976565	-228.4467773437501	155.7623138427735	-738.5025634765626	-283.2477416992188	157.4019165039063	-693.7536010742189	
1114	5.565	-131.2377471923828	1800.77587890625	-1019.322143554688	-290.8316650390626	1751.800659179688	-1097.257446289063	-314.7778015136719	1754.486206054688	-958.796569824219	-344.7062988281251	1580.336791992188	-1016.704650878906	-390.6530761718751	1256.509521484375	-1011.606262207031	-199.4651641845704	1523.5986328125	-1018.988830566406	-266.7937316894532	1579.801879882813	-1170.48046875	-121.6592025756836	1445.45703125	-1291.482055664063	-85.6411819458008	1476.064575195313	-1276.625610351563	-53.30013656616212	1430.659057617188	-1299.180786132813	5.361314296722413	1428.223876953125	-1294.506225585938	-1.401381254196167	1363.862426757813	-1247.1923828125	242.2776641845704	1454.98046875	-1169.357299804688	272.0064086914063	1416.389770507813	-1230.041748046875	335.1932067871094	1477.73974609375	-1173.371459960938	-274.2693481445313	1579.99560546875	-874.152038574219	-144.3008728027344	1444.3779296875	-732.9419555664064	-104.8918914794922	1471.136962890625	-740.9371948242189	-79.51306915283205	1420.637329101563	-716.8048095703126	-34.29692459106446	1409.561645507813	-714.2819213867189	-37.75097656250001	1355.26611328125	-771.2066650390627	213.2923736572266	1483.916015625	-840.4522705078127	227.2332153320313	1451.091918945313	-770.6152343750002	287.2318725585938	1522.579223632813	-832.9173583984377	-222.3773193359376	1056.325073242188	-1117.761596679688	-214.6874694824219	1096.083984375	-869.326599121094	-399.0273742675782	1170.68359375	-1000.150329589844	-407.1139526367189	1136.110107421875	-1023.545166015625	-407.1651000976564	1142.475219726563	-966.6108398437502	-329.7868347167969	820.1604614257815	-1178.42431640625	-299.8474121093751	739.1509399414064	-1175.704711914063	-252.7344512939454	741.5397949218751	-1170.965942382813	-329.6029052734376	688.9550781250001	-1153.5927734375	-329.8730163574219	537.0612792968751	-1128.451904296875	-301.7225036621094	536.8966674804689	-990.2471923828127	-284.8462829589844	375.8720397949219	-1068.773681640625	-331.0410461425782	326.7964477539063	-1124.408569335938	-292.2975769042969	325.6544799804688	-1099.779907226563	-299.2796630859376	250.0283355712891	-1062.162719726563	-358.0457153320313	113.4981842041016	-1097.253784179688	-328.4490356445313	132.3671264648438	-1006.86767578125	-428.0967712402345	102.9974899291992	-1040.510009765625	-215.7830505371094	54.32187271118165	-1019.574340820313	-208.4791870117188	54.02027511596681	-1069.023803710938	-261.0660400390626	39.71893310546876	-1120.20068359375	-218.125961303711	814.8972778320315	-737.7396240234376	-163.4668426513672	777.295104980469	-728.1679687500001	-131.6186218261719	786.684265136719	-734.3186035156251	-163.9985809326172	693.4408569335939	-732.2886962890626	-161.2985382080078	617.6231079101564	-726.4780273437501	-106.2536392211914	607.3752441406251	-853.4230957031252	-148.7060241699219	499.7890930175782	-729.4220581054689	-247.6583404541016	467.3804016113282	-701.6451416015626	-210.484603881836	441.0271911621095	-710.7085571289064	-220.1355895996094	390.0781860351564	-737.2261962890626	-356.6310119628907	260.9959716796876	-721.7226562500001	-308.9872436523438	260.8845214843751	-805.8874511718752	-424.1768188476564	252.6594543457032	-783.2861938476565	-226.0421142578126	146.9544067382813	-784.050964355469	-223.652328491211	152.402328491211	-736.9173583984376	-278.5687561035157	153.1558227539063	-691.8583374023439	
